<svg xmlns="http://www.w3.org/2000/svg" xml:space="preserve" viewBox="0 0 512 512" id="conclusion">
  <linearGradient id="a" x1="-3.865" x2="414.695" y1="486.455" y2="67.895" gradientUnits="userSpaceOnUse">
    <stop offset="0" stop-color="#fcc60e"></stop>
    <stop offset="1" stop-color="#e92e29"></stop>
  </linearGradient>
  <path fill="url(#a)" d="M183.914 191.616a8 8 0 0 1 8-8h126.497a8 8 0 0 1 0 16H191.914a8 8 0 0 1-8-8zm8-36.69h126.497a8 8 0 0 0 0-16H191.914a8 8 0 0 0 0 16zm-96.487 8.268a8 8 0 0 0-11.312 11.314l18.208 18.207a7.977 7.977 0 0 0 5.657 2.343 7.97 7.97 0 0 0 5.375-2.076l44.223-40.133a7.999 7.999 0 0 0 .548-11.3 7.999 7.999 0 0 0-11.3-.548l-38.579 35.011-12.82-12.818zM205.415 28.991c-5.523 0-10 4.477-10 10s4.477 10 10 10 10-4.477 10-10-4.477-10-10-10zm-58.59 188.012-38.579 35.011-12.818-12.819a8 8 0 0 0-11.314 11.314l18.208 18.208a7.981 7.981 0 0 0 5.658 2.343 7.97 7.97 0 0 0 5.375-2.076l44.223-40.133a7.999 7.999 0 0 0 .548-11.3 7.999 7.999 0 0 0-11.301-.548zm0 76-38.579 35.011-12.819-12.818a8 8 0 0 0-11.312 11.314l18.208 18.207a7.977 7.977 0 0 0 5.657 2.343 7.97 7.97 0 0 0 5.375-2.076l44.223-40.133a8 8 0 0 0-10.753-11.848zm0 76-38.579 35.011-12.819-12.818a8 8 0 0 0-11.312 11.314l18.208 18.207a7.977 7.977 0 0 0 5.657 2.343 7.97 7.97 0 0 0 5.375-2.076l44.223-40.133a7.999 7.999 0 0 0 .548-11.3 8 8 0 0 0-11.301-.548zm45.089 54.057h126.497a8 8 0 0 0 0-16H191.914a8 8 0 0 0 0 16zm214.969-1.853v60.556c0 16.673-13.564 30.237-30.238 30.237H34.185c-16.673 0-30.237-13.564-30.237-30.237V72.588c0-16.673 13.564-30.237 30.237-30.237H111.8V36.91a8 8 0 0 1 8-8h43.022C169.64 11.611 186.346 0 205.414 0s35.775 11.611 42.593 28.909h43.022a8 8 0 0 1 8 8v5.441h77.615c16.674 0 30.238 13.564 30.238 30.237V185.58c57.2 8.704 101.17 58.219 101.17 117.813.001 59.595-43.969 109.11-101.169 117.814zM299.029 58.351v14.936h68.918a8 8 0 0 1 8 8v103.641a119.89 119.89 0 0 1 12.935-.704c.669 0 1.334.014 2.001.025V72.588c0-7.851-6.388-14.237-14.238-14.237h-77.616zM127.8 86.727h155.229V44.909h-40.866a8 8 0 0 1-7.777-6.124C231.15 25.369 219.237 16 205.414 16c-13.822 0-25.735 9.369-28.971 22.785a8 8 0 0 1-7.777 6.124H127.8v41.818zm-8 16a8 8 0 0 1-8-8v-5.44H50.882v375.778h309.065v-46.059c-25.403-6.36-47.598-20.894-63.621-40.635H191.914a8 8 0 0 1 0-16h93.444a118.454 118.454 0 0 1-11.742-28.689h-81.702a8 8 0 0 1 0-16h78.656a119.724 119.724 0 0 1-.859-14.288c0-4.874.301-9.678.873-14.4h-78.669a8 8 0 0 1 0-16h81.732a118.464 118.464 0 0 1 11.774-28.688h-93.506a8 8 0 0 1 0-16h104.503c16.016-19.684 38.175-34.174 63.53-40.522V89.286H299.03v5.44a8 8 0 0 1-8 8H119.8zM390.883 422.54c-.667.011-1.332.025-2.001.025-4.371 0-8.685-.244-12.935-.704v51.203a8 8 0 0 1-8 8H42.882a8 8 0 0 1-8-8V81.286a8 8 0 0 1 8-8H111.8V58.351H34.185c-7.851 0-14.237 6.387-14.237 14.237v409.175c0 7.851 6.387 14.237 14.237 14.237h342.46c7.851 0 14.238-6.387 14.238-14.237V422.54zm101.17-119.146c0-56.889-46.282-103.171-103.171-103.171s-103.171 46.282-103.171 103.171c0 56.89 46.282 103.172 103.171 103.172s103.171-46.283 103.171-103.172zm-36.839-44.399c8.165 8.119 8.202 21.368.082 29.534a17663.34 17663.34 0 0 0-26.076 26.411c-15.688 15.909-31.908 32.361-47.967 48.421-3.951 3.951-9.204 6.127-14.793 6.127s-10.842-2.176-14.794-6.127l-41.167-41.167a20.784 20.784 0 0 1-6.127-14.793 20.786 20.786 0 0 1 6.127-14.794c8.158-8.156 21.43-8.156 29.588 0l26.324 26.326 59.254-59.846c8.133-8.176 21.385-8.213 29.549-.092zm-11.282 11.345a4.892 4.892 0 0 0-6.91.019l-64.897 65.546a7.995 7.995 0 0 1-5.665 2.371h-.02a7.999 7.999 0 0 1-5.657-2.344l-32.01-32.011a4.906 4.906 0 0 0-3.479-1.438 4.898 4.898 0 0 0-3.479 1.439c-.93.929-1.441 2.165-1.441 3.479s.512 2.55 1.44 3.479h.001l41.167 41.167c.929.93 2.165 1.441 3.479 1.441s2.55-.512 3.479-1.44c16.02-16.02 32.221-32.451 47.888-48.341 8.7-8.824 17.399-17.647 26.112-26.447 1.91-1.922 1.901-5.021-.008-6.92z"></path>
</svg>
