<svg xmlns="http://www.w3.org/2000/svg" viewBox="0 0 64 64" id="task">
  <defs>
    <linearGradient id="a" x1="31.979" x2="31.979" y1="64.04" y2="0" gradientUnits="userSpaceOnUse">
      <stop offset=".001" stop-color="#ffd255"></stop>
      <stop offset=".999" stop-color="#ff78dc"></stop>
    </linearGradient>
  </defs>
  <path fill="url(#a)" d="M44.95996094,47.16015625c-.55273438,0-1,.44775391-1,1v8.87988281c0,2.75683594-2.24316406,5-5,5H6.95996094c-2.75683594,0-5-2.24316406-5-5V14.04003906c0-2.75683594,2.24316406-5,5-5h4.04003906v2.95996094h-3c-1.65429688,0-3,1.34570312-3,3v41c0,1.65429688,1.34570312,3,3,3h30c1.65429688,0,3-1.34570312,3-3v-5.87988281c0-.55224609-.44726562-1-1-1s-1,.44775391-1,1v5.87988281c0,.55126953-.44824219,1-1,1H8c-.55126953,0-1-.44873047-1-1V15c0-.55126953.44873047-1,1-1h3v1c0,1.65429688,1.34570312,3,3,3h18c1.65429688,0,3-1.34570312,3-3v-1h3c.55175781,0,1,.44873047,1,1v21.64013672c0,.55224609.44726562,1,1,1s1-.44775391,1-1V15c0-1.65429688-1.34570312-3-3-3h-3v-2.95996094h3.95996094c2.75683594,0,5,2.24316406,5,5v17.64013672c0,.55224609.44726562,1,1,1s1-.44775391,1-1V14.04003906c0-3.85986328-3.140625-7-7-7h-4.70721436c-.550354-.63183594-1.35089111-1.04003906-2.25274658-1.04003906h-4v-1c0-2.75683594-2.24316406-5-5-5s-5,2.24316406-5,5v1h-4c-.90185547,0-1.70239258.40820312-2.25274658,1.04003906h-4.78729248C3.10009766,7.04003906-.04003906,10.18017578-.04003906,14.04003906v43c0,3.85986328,3.14013672,7,7,7h32c3.859375,0,7-3.14013672,7-7v-8.87988281c0-.55224609-.44726562-1-1-1ZM20,5c0-1.65429688,1.34570312-3,3-3s3,1.34570312,3,3v1h-6v-1ZM14,8h18c.55126953,0,1,.44873047,1,1v6c0,.55126953-.44873047,1-1,1H14c-.55126953,0-1-.44873047-1-1v-6c0-.55126953.44873047-1,1-1ZM63.0859375,21.79248047c-1.18066406-1.1796875-3.23730469-1.17822266-4.4140625.00048828l-1.3347168,1.3347168c-.37719727-.19793701-.8480835-.1519165-1.1652832.1652832l-3,3-15,15c-.10018167.10018167-.19825835.26266207-.24121094.390625l-1.92529297,5.77587891-.83349609.83349609c-.390625.390625-.390625,1.0234375,0,1.4140625.39062532.39062532,1.02343718.39062532,1.4140625,0l.83276367-.83276367,5.77661133-1.92553711c.11390565-.0377171.28438379-.13545801.390625-.24169922l14.29296875-14.29296875,1.5859375,1.5859375-6.29296875,6.29296875c-.1875.1875-.29296875.44189453-.29296875.70703125v3c0,.55224609.44726562,1,1,1s1-.44775391,1-1v-2.5859375l6.70703125-6.70703125c.390625-.390625.390625-1.0234375,0-1.4140625l-2.29296875-2.29296875,2.29296875-2.29296875c.31719971-.31719971.36322021-.78808594.1652832-1.1652832l1.3347168-1.3347168c1.21679688-1.21679688,1.21679688-3.19726562,0-4.41455078ZM56.37890625,25.9140625l2.5859375,2.5859375-1.0859375,1.0859375-2.5859375-2.5859375,1.0859375-1.0859375ZM39.31591797,43.85107422l1.71191406,1.71191406-2.56787109.85595703.85595703-2.56787109ZM42.87890625,44.5859375l-2.5859375-2.5859375,13.5859375-13.5859375,2.5859375,2.5859375-13.5859375,13.5859375ZM61.671875,24.79296875l-1.29296875,1.29296875-1.5859375-1.5859375,1.29296875-1.29296875c.42382812-.42236328,1.16210938-.42431641,1.5859375,0,.43652344.43701172.43652344,1.14892578,0,1.5859375ZM19.70703125,22.70703125l-5,5c-.1953125.1953125-.45117188.29296875-.70703125.29296875s-.51171875-.09765625-.70703125-.29296875l-3-3c-.390625-.390625-.390625-1.0234375,0-1.4140625s1.0234375-.390625,1.4140625,0l2.29296875,2.29296875,4.29296875-4.29296875c.390625-.390625,1.0234375-.390625,1.4140625,0s.390625,1.0234375,0,1.4140625ZM36,23c0,.55224609-.44726562,1-1,1h-9c-.55224609,0-1-.44775391-1-1s.44775391-1,1-1h9c.55273438,0,1,.44775391,1,1ZM36,27c0,.55224609-.44726562,1-1,1h-13c-.55224609,0-1-.44775391-1-1s.44775391-1,1-1h13c.55273438,0,1,.44775391,1,1ZM19.70703125,35.70703125l-5,5c-.1953125.1953125-.45117188.29296875-.70703125.29296875s-.51171875-.09765625-.70703125-.29296875l-3-3c-.390625-.390625-.390625-1.0234375,0-1.4140625s1.0234375-.390625,1.4140625,0l2.29296875,2.29296875,4.29296875-4.29296875c.390625-.390625,1.0234375-.390625,1.4140625,0s.390625,1.0234375,0,1.4140625ZM36,36c0,.55224609-.44726562,1-1,1h-9c-.55224609,0-1-.44775391-1-1s.44775391-1,1-1h9c.55273438,0,1,.44775391,1,1ZM35,41h-13c-.55224609,0-1-.44775391-1-1s.44775391-1,1-1h13c.55273438,0,1,.44775391,1,1s-.44726562,1-1,1ZM19.70703125,47.29296875c.390625.390625.390625,1.0234375,0,1.4140625l-5,5c-.1953125.1953125-.45117188.29296875-.70703125.29296875s-.51171875-.09765625-.70703125-.29296875l-3-3c-.390625-.390625-.390625-1.0234375,0-1.4140625s1.0234375-.390625,1.4140625,0l2.29296875,2.29296875,4.29296875-4.29296875c.390625-.390625,1.0234375-.390625,1.4140625,0ZM33,49c0,.55224609-.44775391,1-1,1h-6c-.55224609,0-1-.44775391-1-1s.44775391-1,1-1h6c.55224609,0,1,.44775391,1,1ZM22,52h13c.55273438,0,1,.44775391,1,1s-.44726562,1-1,1h-13c-.55224609,0-1-.44775391-1-1s.44775391-1,1-1Z"></path>
</svg>
