<svg width="214" height="45" viewBox="0 0 214 45" fill="none" xmlns="http://www.w3.org/2000/svg">
<path d="M16.043 29.8064C13.8667 28.998 11.6281 28.8737 9.57614 29.4333C8.14596 29.8064 6.77796 30.5526 5.53432 31.4853L4.66376 32.2315L4.41504 32.4802L4.97467 32.9777C5.03685 32.9777 5.03686 33.0399 5.09904 33.102C5.22341 33.2264 5.34778 33.2886 5.53432 33.4129L5.9074 33.6617L6.28049 33.3508C6.34268 33.2886 6.46704 33.1642 6.5914 33.102C7.71068 32.1693 8.95431 31.5475 10.2601 31.2366C11.939 30.8013 13.7423 30.8635 15.5456 31.5475C17.0379 32.1071 20.0849 32.7911 23.7536 31.2366L23.878 31.1744L24.0645 30.9879C24.0645 30.9257 24.1267 30.9257 24.1889 30.8635C24.4998 30.4904 24.8107 30.1173 25.0594 29.682L26.303 27.7544L24.3132 28.8737C21.3907 30.4904 18.7169 30.8013 16.043 29.8064Z" fill="#55B02E"/>
<path d="M7.52364 23.0906C9.20255 22.6553 11.0058 22.7175 12.8091 23.4015C14.7989 24.1477 19.8978 25.2048 25.6186 20.0437L26.5513 19.111L26.6135 19.0488L26.8622 18.8001L26.7378 18.4891C26.6756 18.2404 26.5513 17.9295 26.4269 17.6186L26.116 16.748L25.4942 17.3699C25.432 17.4942 25.3076 17.5564 25.1833 17.6808C22.4473 20.479 18.2189 23.3393 13.3687 21.5982C11.1924 20.7899 8.95382 20.6655 6.90182 21.2251C4.91201 21.7848 3.17091 22.8419 1.55418 24.3342V24.2721L0.621456 25.267C0.621456 25.3291 0.559286 25.3292 0.497104 25.3913L0.310547 25.5779L0.372732 25.8266C0.434914 26.1375 0.559274 26.4484 0.621456 26.7593L0.994551 27.7542L1.61637 26.9459C1.67855 26.8215 1.80291 26.7593 1.86509 26.635C3.17091 25.4535 4.97419 23.7746 7.52364 23.0906Z" fill="#55B02E"/>
<path d="M1.49238 21.9715C2.92256 20.4792 4.53928 19.5464 6.28037 19.049C7.95928 18.6137 9.76255 18.6759 11.5658 19.3599C17.1622 21.4119 22.0124 18.0541 24.1266 16.2508L24.9349 15.4424L25.2458 15.1937L24.9971 14.8206C24.8106 14.6341 24.6862 14.3854 24.4997 14.1366L24.1266 13.6392L23.6913 14.0744C23.6291 14.1366 23.5047 14.261 23.4426 14.3232C20.8309 16.8104 16.7891 19.3599 12.1876 17.6188C10.0113 16.8104 7.77273 16.6861 5.72074 17.2457C4.41492 17.6188 3.17128 18.2406 1.92764 19.049L0.621818 20.1061C0.497455 20.2304 0.435273 20.2926 0.310909 20.417L0.186557 20.5413V20.7279C0.124375 21.1632 0.124367 21.5984 0.0621856 21.9715L0 23.5261L1.0571 22.4068C1.18146 22.2824 1.30583 22.0959 1.49238 21.9715Z" fill="#55B02E"/>
<path d="M17.8466 34.0349L17.7222 34.408L17.8466 34.0349C17.66 33.9727 17.5357 33.9105 17.3491 33.8483C15.1728 33.04 12.9342 32.9156 10.8822 33.4753C10.4469 33.5996 10.0117 33.724 9.57639 33.9105L8.08401 34.5945L7.71094 34.7811L8.95457 35.2163C9.32766 35.3407 9.70075 35.4651 10.0738 35.5894L10.2604 35.6516L10.4469 35.5894C10.6335 35.5273 10.82 35.4029 11.0066 35.4029C11.1309 35.4029 11.2553 35.3407 11.3797 35.2785C12.872 34.9054 14.4887 34.9054 16.2298 35.4651C16.4164 35.5272 16.5408 35.5894 16.7273 35.6516L17.0382 35.776L17.2247 35.7138C17.66 35.5894 18.1575 35.4651 18.5306 35.2785L20.2717 34.6567L18.4684 34.2214C18.2818 34.1592 18.0331 34.0971 17.8466 34.0349Z" fill="#55B02E"/>
<path d="M27.3597 21.1631L26.427 22.0958C26.3027 22.2202 26.1783 22.3445 26.0539 22.4689C23.5045 24.894 19.4005 27.5056 14.799 25.7645C12.6227 24.9562 10.3841 24.8318 8.33213 25.3915C6.40449 25.9511 4.66338 26.946 3.10884 28.4384L2.30048 29.3089L2.05176 29.6198L2.30048 29.9929C2.48703 30.2416 2.6114 30.4282 2.73576 30.6769L3.10884 31.2365L3.54412 30.6769C3.6063 30.6147 3.73066 30.4904 3.79284 30.4282C5.2852 28.8114 6.90193 27.8165 8.76739 27.3191C10.4463 26.8838 12.2496 26.946 14.0528 27.63C15.6074 28.1896 17.2241 28.3762 18.8408 28.1896C21.7012 27.8787 24.5616 26.262 26.6758 24.4587C26.8001 24.3344 26.9245 24.2722 27.0488 24.1478L27.2354 23.9613V23.7747C27.2354 23.4016 27.2976 22.9664 27.2976 22.5933L27.3597 21.1631Z" fill="#55B02E"/>
<path d="M3.73045 15.4423L3.54391 15.0692L3.73045 15.4423C4.10354 15.2557 4.53883 15.1313 4.91192 15.007C6.59083 14.5717 8.3941 14.6339 10.1974 15.3179C11.3788 15.7532 12.5603 15.9397 13.8661 15.9397C16.4777 15.9397 19.0894 15.007 21.5145 13.2037L22.4472 12.4575L22.7581 12.2088L22.1985 11.7735C22.0119 11.587 21.7632 11.4004 21.5145 11.2761L21.1414 11.0273L20.8305 11.2761C20.7061 11.3382 20.6439 11.4626 20.5195 11.5248C17.2239 14.0121 13.9283 14.6961 10.8192 13.5146C8.58065 12.7063 6.34209 12.5197 4.10355 13.2037C3.917 13.2659 3.73045 13.3281 3.48173 13.3902L3.35738 13.4524L3.17082 13.639C3.17082 13.7012 3.10865 13.7012 3.04647 13.7633C2.79774 14.1364 2.48682 14.4473 2.23809 14.8204L1.05664 16.6237L2.98428 15.6288C3.29519 15.6288 3.54391 15.5044 3.73045 15.4423Z" fill="#55B02E"/>
<path d="M8.82967 11.2139L9.01621 11.2761C9.82457 11.587 11.0682 11.8979 12.6228 11.8979C14.2395 11.8979 15.794 11.5248 17.3486 10.903L19.2762 9.97029L17.9704 9.53503C17.5973 9.41067 17.2242 9.2863 16.7889 9.22412H16.6024L16.4159 9.28629C16.2293 9.34847 16.0428 9.47285 15.8562 9.53503C13.9908 10.219 12.1253 10.3434 10.322 9.84594C10.1355 9.78376 9.94894 9.72156 9.7624 9.65938L9.57586 9.5972L9.3893 9.65938C9.01621 9.78375 8.64313 9.90812 8.27004 10.0947L6.83984 10.7165L8.33222 11.1517C8.45659 11.0896 8.64312 11.1517 8.82967 11.2139Z" fill="#55B02E"/>
<path d="M44.4521 33V16.228H37.9281V13.26H54.5881V16.228H48.0641V33H44.4521ZM60.1326 33.28C58.9006 33.28 57.8179 32.9907 56.8846 32.412C55.9512 31.8147 55.2232 30.9653 54.7006 29.864C54.1779 28.7627 53.9166 27.4467 53.9166 25.916C53.9166 24.3853 54.1779 23.0787 54.7006 21.996C55.2232 20.8947 55.9512 20.0547 56.8846 19.476C57.8179 18.8787 58.9006 18.58 60.1326 18.58C61.3272 18.58 62.3726 18.8787 63.2686 19.476C64.1832 20.0547 64.7899 20.8387 65.0886 21.828H64.7806L65.0886 18.86H68.4486C68.3926 19.4387 68.3366 20.0267 68.2806 20.624C68.2432 21.2213 68.2246 21.8093 68.2246 22.388V33H64.7526L64.7246 30.088H65.0606C64.7619 31.0587 64.1552 31.8333 63.2406 32.412C62.3259 32.9907 61.2899 33.28 60.1326 33.28ZM61.1126 30.592C62.2139 30.592 63.1006 30.2093 63.7726 29.444C64.4446 28.66 64.7806 27.484 64.7806 25.916C64.7806 24.348 64.4446 23.1813 63.7726 22.416C63.1006 21.6507 62.2139 21.268 61.1126 21.268C60.0112 21.268 59.1246 21.6507 58.4526 22.416C57.7806 23.1813 57.4446 24.348 57.4446 25.916C57.4446 27.484 57.7712 28.66 58.4246 29.444C59.0966 30.2093 59.9926 30.592 61.1126 30.592ZM77.0758 33.28C75.8625 33.28 74.7425 33.14 73.7158 32.86C72.7078 32.5613 71.8585 32.1507 71.1678 31.628L72.1478 29.276C72.8572 29.7613 73.6412 30.1347 74.4998 30.396C75.3585 30.6573 76.2265 30.788 77.1038 30.788C78.0372 30.788 78.7278 30.6293 79.1758 30.312C79.6425 29.9947 79.8758 29.5653 79.8758 29.024C79.8758 28.5947 79.7265 28.2587 79.4278 28.016C79.1478 27.7547 78.6905 27.5587 78.0558 27.428L75.2558 26.896C74.0612 26.6347 73.1465 26.1867 72.5118 25.552C71.8958 24.9173 71.5878 24.0867 71.5878 23.06C71.5878 22.1827 71.8212 21.408 72.2878 20.736C72.7732 20.064 73.4545 19.5413 74.3318 19.168C75.2278 18.776 76.2732 18.58 77.4678 18.58C78.5132 18.58 79.4932 18.72 80.4078 19C81.3412 19.28 82.1252 19.7 82.7598 20.26L81.7518 22.528C81.1732 22.0613 80.5105 21.6973 79.7638 21.436C79.0172 21.1747 78.2892 21.044 77.5798 21.044C76.6092 21.044 75.8998 21.2213 75.4518 21.576C75.0038 21.912 74.7798 22.3507 74.7798 22.892C74.7798 23.3027 74.9105 23.648 75.1718 23.928C75.4518 24.1893 75.8812 24.3853 76.4598 24.516L79.2598 25.048C80.5105 25.2907 81.4532 25.72 82.0878 26.336C82.7412 26.9333 83.0678 27.7547 83.0678 28.8C83.0678 29.7333 82.8158 30.536 82.3118 31.208C81.8078 31.88 81.1078 32.3933 80.2118 32.748C79.3158 33.1027 78.2705 33.28 77.0758 33.28ZM86.0632 33V12.392H89.5632V24.88H89.6192L95.3592 18.86H99.5872L92.4472 26.336L92.4752 24.936L100.091 33H95.7512L89.6192 26.672H89.5632V33H86.0632ZM109.504 33V13.26H112.668L119.92 29.584H119.052L126.304 13.26H129.44V33H126.164V18.356H127.172L120.536 33H118.38L111.744 18.356H112.78V33H109.504ZM139.019 33.28C137.787 33.28 136.705 32.9907 135.771 32.412C134.838 31.8147 134.11 30.9653 133.587 29.864C133.065 28.7627 132.803 27.4467 132.803 25.916C132.803 24.3853 133.065 23.0787 133.587 21.996C134.11 20.8947 134.838 20.0547 135.771 19.476C136.705 18.8787 137.787 18.58 139.019 18.58C140.214 18.58 141.259 18.8787 142.155 19.476C143.07 20.0547 143.677 20.8387 143.975 21.828H143.667L143.975 18.86H147.335C147.279 19.4387 147.223 20.0267 147.167 20.624C147.13 21.2213 147.111 21.8093 147.111 22.388V33H143.639L143.611 30.088H143.947C143.649 31.0587 143.042 31.8333 142.127 32.412C141.213 32.9907 140.177 33.28 139.019 33.28ZM139.999 30.592C141.101 30.592 141.987 30.2093 142.659 29.444C143.331 28.66 143.667 27.484 143.667 25.916C143.667 24.348 143.331 23.1813 142.659 22.416C141.987 21.6507 141.101 21.268 139.999 21.268C138.898 21.268 138.011 21.6507 137.339 22.416C136.667 23.1813 136.331 24.348 136.331 25.916C136.331 27.484 136.658 28.66 137.311 29.444C137.983 30.2093 138.879 30.592 139.999 30.592ZM155.963 33.28C154.749 33.28 153.629 33.14 152.603 32.86C151.595 32.5613 150.745 32.1507 150.055 31.628L151.035 29.276C151.744 29.7613 152.528 30.1347 153.387 30.396C154.245 30.6573 155.113 30.788 155.991 30.788C156.924 30.788 157.615 30.6293 158.063 30.312C158.529 29.9947 158.763 29.5653 158.763 29.024C158.763 28.5947 158.613 28.2587 158.315 28.016C158.035 27.7547 157.577 27.5587 156.943 27.428L154.143 26.896C152.948 26.6347 152.033 26.1867 151.399 25.552C150.783 24.9173 150.475 24.0867 150.475 23.06C150.475 22.1827 150.708 21.408 151.175 20.736C151.66 20.064 152.341 19.5413 153.219 19.168C154.115 18.776 155.16 18.58 156.355 18.58C157.4 18.58 158.38 18.72 159.295 19C160.228 19.28 161.012 19.7 161.647 20.26L160.639 22.528C160.06 22.0613 159.397 21.6973 158.651 21.436C157.904 21.1747 157.176 21.044 156.467 21.044C155.496 21.044 154.787 21.2213 154.339 21.576C153.891 21.912 153.667 22.3507 153.667 22.892C153.667 23.3027 153.797 23.648 154.059 23.928C154.339 24.1893 154.768 24.3853 155.347 24.516L158.147 25.048C159.397 25.2907 160.34 25.72 160.975 26.336C161.628 26.9333 161.955 27.7547 161.955 28.8C161.955 29.7333 161.703 30.536 161.199 31.208C160.695 31.88 159.995 32.3933 159.099 32.748C158.203 33.1027 157.157 33.28 155.963 33.28ZM170.861 33.28C169.181 33.28 167.912 32.8413 167.053 31.964C166.195 31.0867 165.765 29.7707 165.765 28.016V21.492H163.049V18.86H165.765V15.248L169.265 14.352V18.86H173.045V21.492H169.265V27.792C169.265 28.7627 169.452 29.444 169.825 29.836C170.199 30.228 170.712 30.424 171.365 30.424C171.72 30.424 172.019 30.396 172.261 30.34C172.523 30.284 172.775 30.2093 173.017 30.116V32.888C172.7 33.0187 172.345 33.112 171.953 33.168C171.58 33.2427 171.216 33.28 170.861 33.28ZM182.118 33.28C179.747 33.28 177.89 32.6267 176.546 31.32C175.202 30.0133 174.53 28.2213 174.53 25.944C174.53 24.4693 174.819 23.1813 175.398 22.08C175.977 20.9787 176.779 20.12 177.806 19.504C178.851 18.888 180.065 18.58 181.446 18.58C182.809 18.58 183.947 18.8693 184.862 19.448C185.777 20.0267 186.467 20.8387 186.934 21.884C187.419 22.9293 187.662 24.152 187.662 25.552V26.476H177.358V24.628H185.17L184.694 25.02C184.694 23.7133 184.414 22.7147 183.854 22.024C183.313 21.3333 182.519 20.988 181.474 20.988C180.317 20.988 179.421 21.3987 178.786 22.22C178.17 23.0413 177.862 24.1893 177.862 25.664V26.028C177.862 27.5587 178.235 28.7067 178.982 29.472C179.747 30.2187 180.821 30.592 182.202 30.592C183.005 30.592 183.751 30.4893 184.442 30.284C185.151 30.06 185.823 29.7053 186.458 29.22L187.494 31.572C186.822 32.1133 186.019 32.5333 185.086 32.832C184.153 33.1307 183.163 33.28 182.118 33.28ZM190.598 33V22.472C190.598 21.8747 190.579 21.268 190.542 20.652C190.523 20.036 190.476 19.4387 190.402 18.86H193.79L194.182 22.724H193.622C193.808 21.7907 194.116 21.016 194.546 20.4C194.994 19.784 195.535 19.3267 196.17 19.028C196.804 18.7293 197.495 18.58 198.242 18.58C198.578 18.58 198.848 18.5987 199.054 18.636C199.259 18.6547 199.464 18.7013 199.67 18.776L199.642 21.856C199.287 21.7067 198.979 21.6133 198.718 21.576C198.475 21.5387 198.167 21.52 197.794 21.52C196.991 21.52 196.31 21.688 195.75 22.024C195.208 22.36 194.798 22.8267 194.518 23.424C194.256 24.0213 194.126 24.7027 194.126 25.468V33H190.598Z" fill="white"/>
</svg>
