<svg xmlns="http://www.w3.org/2000/svg" xml:space="preserve" viewBox="0 0 512 512" id="task-list">
  <linearGradient id="a" x1="26.179" x2="444.739" y1="491.503" y2="72.943" gradientUnits="userSpaceOnUse">
    <stop offset="0" stop-color="#fcc60e"></stop>
    <stop offset="1" stop-color="#e92e29"></stop>
  </linearGradient>
  <path fill="url(#a)" d="M208.911 191.616a8 8 0 0 1 8-8h126.496a8 8 0 0 1 0 16H216.911a8 8 0 0 1-8-8zm8-36.69h126.496a8 8 0 0 0 0-16H216.911a8 8 0 0 0 0 16zm-96.486 8.269a8 8 0 1 0-11.314 11.313l18.207 18.208a7.981 7.981 0 0 0 5.658 2.343 7.975 7.975 0 0 0 5.375-2.076l44.224-40.133a7.999 7.999 0 0 0 .548-11.3 8 8 0 0 0-11.3-.548l-38.58 35.011-12.818-12.818zM230.411 28.991c-5.523 0-10 4.477-10 10s4.477 10 10 10 10-4.477 10-10-4.477-10-10-10zm-58.589 188.011-38.58 35.011-12.817-12.818a8 8 0 1 0-11.314 11.313l18.207 18.208a7.981 7.981 0 0 0 5.658 2.343 7.975 7.975 0 0 0 5.375-2.076l44.224-40.133a7.999 7.999 0 0 0 .548-11.3 8.003 8.003 0 0 0-11.301-.548zm0 76-38.58 35.012-12.817-12.818a8 8 0 1 0-11.314 11.313l18.207 18.208a7.981 7.981 0 0 0 5.658 2.343 7.975 7.975 0 0 0 5.375-2.076l44.224-40.133a7.999 7.999 0 0 0 .548-11.3 8 8 0 0 0-11.301-.549zm0 76.001-38.58 35.011-12.817-12.818a8 8 0 0 0-11.314 11.313l18.207 18.208a7.981 7.981 0 0 0 5.658 2.343 7.975 7.975 0 0 0 5.375-2.076l44.224-40.133a7.999 7.999 0 0 0 .548-11.3 8.002 8.002 0 0 0-11.301-.548zm45.089-124.698h126.496a8 8 0 0 0 0-16H216.911a8 8 0 0 0 0 16zm266.146 62.076v144.902c0 7.849-2.934 14.932-8.484 20.483l-31.749 31.75c-5.553 5.551-12.636 8.484-20.483 8.484H59.181c-16.673 0-30.237-13.564-30.237-30.237V72.588c0-16.673 13.564-30.238 30.237-30.238h77.615v-5.441a8 8 0 0 1 8-8h43.022C194.636 11.611 211.343 0 230.411 0s35.774 11.611 42.592 28.909h43.023a8 8 0 0 1 8 8v5.441h77.615c16.673 0 30.237 13.564 30.237 30.238v187.337h5.801c7.302 0 13.242 5.94 13.242 13.242v4.247h3.167c15.974-.001 28.969 12.994 28.969 28.967zm-45.377 11.824h-10.394c-7.302 0-13.242-5.94-13.242-13.242v-11.55h-21.406v11.55c0 7.302-5.94 13.242-13.242 13.242h-10.394c-7.302 0-13.242-5.94-13.242-13.242v-11.55h-21.406v11.55c0 7.302-5.94 13.242-13.242 13.242h-10.394c-7.302 0-13.242-5.94-13.242-13.242v-11.55H276.07v11.55c0 7.302-5.94 13.242-13.241 13.242h-10.395c-7.302 0-13.242-5.94-13.242-13.242v-11.55h-3.167c-7.15 0-12.968 5.817-12.968 12.968v16.792h244v-16.792c0-7.15-5.817-12.968-12.968-12.968h-3.167v11.55c0 7.302-5.941 13.242-13.242 13.242zm-177.611-16v-26.28h-4.878v26.28h4.878zm58.285 0v-26.28h-4.878v26.28h4.878zm58.284 0v-26.28h-4.878v26.28h4.878zm58.284-26.28h-4.878v26.28h4.878v-26.28zM324.026 58.35v14.936h68.917a8 8 0 0 1 8 8v196.127h13.101v-4.247c0-2.443.677-4.725 1.835-6.692V72.588c0-7.851-6.387-14.238-14.237-14.238h-77.616zm-171.23 28.377h155.23V44.909h-40.867a8 8 0 0 1-7.777-6.125C256.146 25.37 244.233 16 230.411 16c-13.823 0-25.736 9.37-28.972 22.785a8.001 8.001 0 0 1-7.777 6.125h-40.866v41.817zm-8 16a8 8 0 0 1-8-8v-5.441H75.879v375.779h131.178V306.381c0-15.973 12.995-28.968 28.968-28.968h3.167v-4.247c0-7.301 5.94-13.242 13.242-13.242h10.395c7.301 0 13.241 5.94 13.241 13.242v4.247h21.406v-4.247c0-7.301 5.94-13.242 13.242-13.242h10.394c7.302 0 13.242 5.94 13.242 13.242v4.247h21.406v-4.247c0-7.301 5.94-13.242 13.242-13.242h10.394c1.982 0 3.857.45 5.548 1.234V89.286h-60.917v5.441a8 8 0 0 1-8 8H144.796zM59.181 496h150.953a28.777 28.777 0 0 1-3.077-12.968v-1.967H67.879a8 8 0 0 1-8-8V81.286a8 8 0 0 1 8-8h68.917V58.35H59.181c-7.851 0-14.237 6.387-14.237 14.238v409.175C44.943 489.613 51.33 496 59.181 496zm363.159 0c.234 0 .457-.019.685-.029V465.21c0-7.301 5.94-13.242 13.242-13.242h30.761c.01-.228.029-.451.029-.686v-112.11h-244v143.86c0 7.15 5.817 12.968 12.968 12.968H422.34zm33.402-28.032h-16.718v16.718l16.718-16.718zm-12.399-22.647h-31.314v31.314a8 8 0 0 1-8 8H246.771a8 8 0 0 1-8-8V358.692a8 8 0 0 1 8-8h196.572a8 8 0 0 1 8 8v78.629a8 8 0 0 1-8 8zm-8-78.629h-23.314v23.314h23.314v-23.314zm-39.315 39.315h-23.314v23.314h23.314v-23.314zm-101.943 23.314h23.314v-23.314h-23.314v23.314zm-16-23.314h-23.314v23.314h23.314v-23.314zm39.314-39.315h-23.314v23.314h23.314v-23.314zm16 23.315h23.314v-23.314h-23.314v23.314zm-39.314 55.314v23.314h23.314v-23.314h-23.314zm39.314 23.314h23.314v-23.314h-23.314v23.314zm23.315-39.314v-23.314H333.4v23.314h23.314zm39.314-39.314v-23.314h-23.314v23.314h23.314zm-141.257-23.315v23.314h23.314v-23.314h-23.314zm0 101.943h23.314v-23.314h-23.314v23.314zm141.257 0v-23.314h-23.314v23.314h23.314zm39.315-39.314v-23.314h-23.314v23.314h23.314z"></path>
</svg>
